# xmcd
#
# Track frame offsets: 
#        150
#        18682
#        37737
#        60945
#        79042
#        98750
#        120612
#        142087
#        159217
#        178995
#        201592
#        223155
#
# Disc length: 3262 seconds
#
# Revision: 2
# Processed by: cddbd v1.5.2PL0 Copyright (c) Steve Scherf et al.
# Submitted via: ExactAudioCopyFreeDBPlugin 1.0
#
DISCID=a50cbc0c
DTITLE=南野陽子 - Gauche
DYEAR=1989
DGENRE=JPop
TTITLE0=マニキュアがかわく間に
TTITLE1=それは夏の午後
TTITLE2=鏡の中のエトランゼ
TTITLE3=トラブル・メーカー
TTITLE4=月夜のくしゃみ
TTITLE5=サマー・フレグランス
TTITLE6=月見草幻想
TTITLE7=知ってると思ってた
TTITLE8=さよならGirl
TTITLE9=涙の数、大人になれたら
TTITLE10=愛してる
TTITLE11=思いのままに
EXTD=
EXTT0=
EXTT1=
EXTT2=
EXTT3=
EXTT4=
EXTT5=
EXTT6=
EXTT7=
EXTT8=
EXTT9=
EXTT10=
EXTT11=
PLAYORDER=
